<?xml version="1.0" encoding="UTF-8" standalone="no"?>
<svg
   xmlns:dc="http://purl.org/dc/elements/1.1/"
   xmlns:cc="http://creativecommons.org/ns#"
   xmlns:rdf="http://www.w3.org/1999/02/22-rdf-syntax-ns#"
   xmlns:svg="http://www.w3.org/2000/svg"
   xmlns="http://www.w3.org/2000/svg"
   id="Capa_1"
   enable-background="new 0 0 512 512"
   height="512"
   viewBox="0 0 512 512"
   width="512"
   version="1.1">
  <metadata
     id="metadata39">
    <rdf:RDF>
      <cc:Work
         rdf:about="">
        <dc:format>image/svg+xml</dc:format>
        <dc:type
           rdf:resource="http://purl.org/dc/dcmitype/StillImage" />
        <dc:title></dc:title>
      </cc:Work>
    </rdf:RDF>
  </metadata>
  <defs
     id="defs37" />
  <g
     transform="translate(-52.067796,19.525424)"
     id="g32">
    <path
       d="m 305.395,175.605 c -5.859,-5.859 -15.352,-5.859 -21.211,0 l -53.789,53.789 c -5.859,5.859 -5.859,15.352 0,21.211 5.859,5.859 15.352,5.859 21.211,0 l 53.789,-53.789 c 5.859,-5.859 5.859,-15.351 0,-21.211 z"
       id="path6"
       style="fill:#0b799d" />
    <path
       d="m 251.605,250.605 53.789,-53.789 c 5.859,-5.859 5.859,-15.352 0,-21.211 l -75,75 c 5.86,5.86 15.352,5.86 21.211,0 z"
       id="path8"
       style="fill:#07485e" />
    <path
       d="M 347.805,133.195 C 339.657,125.046 328.407,120 316,120 c -24.814,0 -45,20.186 -45,45 0,12.407 5.046,23.657 13.195,31.805 8.149,8.148 19.398,13.195 31.805,13.195 24.814,0 45,-20.186 45,-45 0,-12.407 -5.046,-23.657 -13.195,-31.805 z"
       id="path20"
       style="fill:#76e2f8" />
    <path
       d="m 361,165 c 0,-12.407 -5.046,-23.657 -13.195,-31.805 l -63.611,63.611 C 292.343,204.954 303.593,210 316,210 c 24.814,0 45,-20.186 45,-45 z"
       id="path22"
       style="fill:#4bb9ec" />
    <path
       d="M 347.069,324.858 251.605,229.394 156.141,133.93 c -5.859,-5.859 -15.352,-5.859 -21.211,0 -58.491,58.491 -58.491,153.647 0,212.139 58.478,58.478 153.629,58.51 212.139,0 5.86,-5.859 5.86,-15.351 0,-21.211 z"
       id="path24"
       style="fill:#f0f7ff" />
    <path
       d="m 347.069,346.069 c 5.859,-5.859 5.859,-15.352 0,-21.211 L 251.605,229.394 134.931,346.069 c 58.478,58.479 153.629,58.51 212.138,0 z"
       id="path26"
       style="fill:#c7cfe1" />
  </g>
  <g
     transform="translate(2.1694915,164.88136)"
     id="layer1">
    <rect
       style="fill:#76e2f8;fill-opacity:1;fill-rule:evenodd;stroke:none;stroke-width:1.08635855;stroke-opacity:1;paint-order:markers fill stroke"
       id="rect847-3"
       width="42.18671"
       height="141.13371"
       x="-119.19766"
       y="355.43646"
       rx="20"
       ry="20"
       transform="rotate(-90)" />
  </g>
</svg>
