<?xml version="1.0" encoding="iso-8859-1"?>
<!-- Generator: Adobe Illustrator 19.0.0, SVG Export Plug-In . SVG Version: 6.00 Build 0)  -->
<svg version="1.1" id="Capa_1" xmlns="http://www.w3.org/2000/svg" xmlns:xlink="http://www.w3.org/1999/xlink" x="0px" y="0px"
	 viewBox="0 0 512 512" style="enable-background:new 0 0 512 512;" xml:space="preserve">
<g>
	<polygon style="fill:#E8EAE9;" points="48,167.467 60.8,167.467 48,180.267 	"/>
	<polygon style="fill:#E8EAE9;" points="230.4,188.8 230.4,460.8 464,460.8 464,167.467 230.4,167.467 	"/>
</g>
<polygon style="fill:#FFD15C;" points="512,167.467 0,167.467 60.8,0 451.2,0 "/>
<path style="fill:#F7B64C;" d="M262.4,156.8l-112-112c-8.533-8.533-23.467-8.533-32,0l-112,112c-8.533,8.533-8.533,23.467,0,32
	c8.533,8.533,23.467,8.533,32,0l96-96l96,96c8.533,8.533,23.467,8.533,32,0C270.933,180.267,270.933,165.333,262.4,156.8z"/>
<polygon style="fill:#F3F3F3;" points="230.4,512 230.4,188.8 134.4,93.867 38.4,188.8 38.4,512 "/>
<path style="fill:#415A6B;" d="M188.8,460.8H80V308.267h107.733V460.8H188.8z"/>
<rect x="94.933" y="322.133" style="fill:#344A5E;" width="78.933" height="123.733"/>
<rect x="298.667" y="329.6" style="fill:#415A6B;" width="98.133" height="98.133"/>
<rect x="311.467" y="343.467" style="fill:#55C0EB;" width="71.467" height="71.467"/>
<rect x="298.667" y="200.533" style="fill:#415A6B;" width="98.133" height="98.133"/>
<rect x="311.467" y="213.333" style="fill:#55C0EB;" width="71.467" height="71.467"/>
<rect y="460.8" style="fill:#CED6E0;" width="512" height="51.2"/>
<circle style="fill:#415A6B;" cx="134.4" cy="205.867" r="43.733"/>
<path style="fill:#55C0EB;" d="M134.4,235.733c-17.067,0-29.867-13.867-29.867-29.867C104.533,188.8,118.4,176,134.4,176
	c17.067,0,29.867,13.867,29.867,29.867C164.267,222.933,151.467,235.733,134.4,235.733z"/>
<g>
</g>
<g>
</g>
<g>
</g>
<g>
</g>
<g>
</g>
<g>
</g>
<g>
</g>
<g>
</g>
<g>
</g>
<g>
</g>
<g>
</g>
<g>
</g>
<g>
</g>
<g>
</g>
<g>
</g>
</svg>
