<?xml version="1.0" encoding="iso-8859-1"?>
<!-- Generator: Adobe Illustrator 19.0.0, SVG Export Plug-In . SVG Version: 6.00 Build 0)  -->
<svg version="1.1" id="Capa_1" xmlns="http://www.w3.org/2000/svg" xmlns:xlink="http://www.w3.org/1999/xlink" x="0px" y="0px"
	 viewBox="0 0 512 512" style="enable-background:new 0 0 512 512;" xml:space="preserve">
<path style="fill:#9C9DA0;" d="M293.965,512h-75.93c-14.648,0-26.522-11.874-26.522-26.522V383.025h128.975v102.453
	C320.487,500.125,308.613,512,293.965,512z"/>
<path style="fill:#909091;" d="M266.112,383.025v102.453c0,14.648-11.874,26.522-26.522,26.522h54.375
	c14.648,0,26.522-11.875,26.522-26.522V383.025H266.112z"/>
<path style="fill:#EDEDED;" d="M412.551,156.551C412.551,70.09,342.461,0,256,0S99.449,70.09,99.449,156.551
	c0,16.824,2.665,33.023,7.576,48.211H107c7.893,17.723,15.438,34.932,22.48,51.976h253.038c7.042-17.044,14.587-34.253,22.48-51.976
	h-0.025C409.886,189.574,412.551,173.375,412.551,156.551z"/>
<path style="fill:#DDDCDB;" d="M412.551,156.551C412.551,70.09,342.461,0,256,0c-9.22,0-18.252,0.804-27.035,2.333
	c73.575,12.809,129.516,76.978,129.516,154.218c0,16.824-2.665,33.023-7.576,48.211h0.025c-7.893,17.723-15.438,34.932-22.48,51.976
	h54.07c7.042-17.044,14.587-34.253,22.48-51.976h-0.025C409.886,189.574,412.551,173.375,412.551,156.551z"/>
<path style="fill:#96CBEB;" d="M108.375,204.884l-1.374-0.122c30.171,67.745,55.33,128.012,66.263,200.027
	c1.586,10.444,10.512,18.192,21.076,18.192h123.32c10.563,0,19.49-7.748,21.076-18.192c10.934-72.015,36.092-132.283,66.263-200.027
	l-1.374,0.122C305.401,213.584,206.599,213.584,108.375,204.884z"/>
<path style="fill:#75B8DB;" d="M403.625,204.884c-18.139,1.607-36.298,2.912-54.468,3.925
	c-29.369,66.106-53.749,125.404-64.464,195.98c-1.586,10.444-10.513,18.192-21.076,18.192h54.043
	c10.563,0,19.49-7.748,21.076-18.192c10.934-72.016,36.092-132.283,66.263-200.027L403.625,204.884z"/>
<g>
	<path style="fill:#E1EFFB;" d="M188.572,266.331c-0.922-4.15-5.032-6.77-9.182-5.844c-4.149,0.922-6.766,5.033-5.844,9.181
		l21.148,95.205c0.797,3.587,3.978,6.03,7.506,6.03c0.553,0,1.114-0.06,1.676-0.185c4.149-0.922,6.766-5.033,5.844-9.181
		L188.572,266.331z"/>
	<path style="fill:#E1EFFB;" d="M238.355,267.431c-0.314-4.238-3.99-7.41-8.243-7.107c-4.239,0.314-7.42,4.004-7.107,8.243
		l7.049,95.205c0.3,4.045,3.675,7.128,7.667,7.128c0.19,0,0.383-0.007,0.576-0.021c4.239-0.314,7.42-4.004,7.107-8.243
		L238.355,267.431z"/>
	<path style="fill:#E1EFFB;" d="M280.859,260.324c-4.236-0.305-7.929,2.868-8.243,7.107l-7.049,95.205
		c-0.314,4.239,2.868,7.93,7.107,8.243c0.193,0.014,0.385,0.021,0.576,0.021c3.992,0,7.367-3.082,7.667-7.128l7.049-95.205
		C288.28,264.329,285.098,260.638,280.859,260.324z"/>
</g>
<path style="fill:#CCDFED;" d="M331.559,260.487c-4.151-0.925-8.26,1.695-9.182,5.844l-21.148,95.205
	c-0.921,4.149,1.695,8.259,5.844,9.181c0.562,0.125,1.123,0.185,1.676,0.185c3.528,0,6.709-2.442,7.506-6.03l21.148-95.205
	C338.325,265.519,335.709,261.409,331.559,260.487z"/>
<g>
	<path style="fill:#909091;" d="M191.513,475.445L191.513,475.445v10.032c0,1.836,0.187,3.629,0.542,5.36h127.89
		c0.355-1.731,0.542-3.524,0.542-5.36v-10.032H191.513z"/>
	<polygon style="fill:#909091;" points="191.513,443.293 191.513,458.685 191.513,458.685 320.487,458.685 320.487,443.293 	"/>
</g>
<g>
</g>
<g>
</g>
<g>
</g>
<g>
</g>
<g>
</g>
<g>
</g>
<g>
</g>
<g>
</g>
<g>
</g>
<g>
</g>
<g>
</g>
<g>
</g>
<g>
</g>
<g>
</g>
<g>
</g>
</svg>
