<?xml version="1.0" encoding="iso-8859-1"?>
<!-- Generator: Adobe Illustrator 19.0.0, SVG Export Plug-In . SVG Version: 6.00 Build 0)  -->
<svg version="1.1" id="Capa_1" xmlns="http://www.w3.org/2000/svg" xmlns:xlink="http://www.w3.org/1999/xlink" x="0px" y="0px"
	 viewBox="0 0 512.001 512.001" style="enable-background:new 0 0 512.001 512.001;" xml:space="preserve">
<path style="fill:#FEDB41;" d="M337.303,287.394l-54.902,22.203v65.402h-90.002v-90.002c-2.401-19.802,8.401-39.601,27.901-47.402
	l17.1-6.899l66.303-26.701c23.1-9.3,49.2,1.8,58.5,24.902C371.503,251.695,360.403,278.094,337.303,287.394z"/>
<path style="fill:#FFCC33;" d="M337.303,287.394l-54.902,22.203v65.402H237.4V230.695l66.303-26.701c23.1-9.3,49.2,1.8,58.5,24.902
	C371.503,251.695,360.403,278.094,337.303,287.394z"/>
<path style="fill:#FEDB41;" d="M387.404,139.491c0,18.001-10.499,34.802-28.201,42.002l-121.803,49.201l-45.001,17.999
	c-23.102,9.6-49.201-1.8-58.501-24.601c-2.1-5.4-3.3-11.4-3.3-16.8c0-17.999,10.499-34.8,27.901-42l78.902-31.801l88.202-35.403
	c23.102-9.3,49.201,1.8,58.501,24.601C386.205,128.09,387.404,134.091,387.404,139.491z"/>
<path style="fill:#FFCC33;" d="M387.404,139.491c0,18.001-10.499,34.802-28.201,42.002l-121.803,49.201v-97.202l88.202-35.403
	c23.102-9.3,49.201,1.8,58.501,24.601C386.205,128.09,387.404,134.091,387.404,139.491z"/>
<path style="fill:#FEDB41;" d="M381.403,44.989c0,17.999-10.499,34.5-28.201,41.701L237.4,133.491l-51.001,20.701
	c-23.1,9.3-49.201-1.802-58.501-24.902c-2.098-5.4-3.3-11.4-3.3-16.8c0-18.001,10.501-34.502,28.201-41.701L237.4,36.588
	l82.202-33.301c23.102-9.3,49.201,1.8,58.501,24.902C380.204,33.589,381.403,39.59,381.403,44.989z"/>
<path style="fill:#FFCC33;" d="M381.403,44.989c0,17.999-10.499,34.5-28.201,41.701L237.4,133.491V36.589l82.202-33.301
	c23.102-9.3,49.201,1.8,58.501,24.902C380.204,33.589,381.403,39.59,381.403,44.989z"/>
<path style="fill:#C5C9F7;" d="M282.402,421.999h-90.002c-8.401,0-15,6.599-15,15v15c0,33,27.002,60.001,60.002,60.001
	s60.002-27.002,60.002-60.001v-15C297.402,428.599,290.803,421.999,282.402,421.999z"/>
<path style="fill:#A8AFF1;" d="M297.402,436.999v15c0,33-27.002,60.001-60.002,60.001v-90.002h45.001
	C290.803,421.999,297.402,428.599,297.402,436.999z"/>
<path style="fill:#E1E4FB;" d="M312.402,329.996H162.399c-8.401,0-15,6.599-15,15v62.002c0,24.9,20.1,45.001,45.001,45.001h90.002
	c24.902,0,45.001-20.102,45.001-45.001v-62.002C327.403,336.597,320.804,329.996,312.402,329.996z"/>
<path style="fill:#C5C9F7;" d="M327.403,344.997v62.002c0,24.9-20.1,45.001-45.001,45.001h-45.001V329.996h75.002
	C320.804,329.996,327.403,336.597,327.403,344.997z"/>
<g>
</g>
<g>
</g>
<g>
</g>
<g>
</g>
<g>
</g>
<g>
</g>
<g>
</g>
<g>
</g>
<g>
</g>
<g>
</g>
<g>
</g>
<g>
</g>
<g>
</g>
<g>
</g>
<g>
</g>
</svg>
