<?xml version="1.0" encoding="UTF-8" standalone="no"?>
<svg
   xmlns:dc="http://purl.org/dc/elements/1.1/"
   xmlns:cc="http://creativecommons.org/ns#"
   xmlns:rdf="http://www.w3.org/1999/02/22-rdf-syntax-ns#"
   xmlns:svg="http://www.w3.org/2000/svg"
   xmlns="http://www.w3.org/2000/svg"
   xml:space="preserve"
   style="enable-background:new 0 0 512.001 512.001;"
   viewBox="0 0 512.001 512.001"
   y="0px"
   x="0px"
   id="Capa_1"
   version="1.1"><metadata
   id="metadata57"><rdf:RDF><cc:Work
       rdf:about=""><dc:format>image/svg+xml</dc:format><dc:type
         rdf:resource="http://purl.org/dc/dcmitype/StillImage" /><dc:title></dc:title></cc:Work></rdf:RDF></metadata><defs
   id="defs55" />
<path
   id="path2"
   d="M337.303,287.394l-54.902,22.203v65.402h-90.002v-90.002c-2.401-19.802,8.401-39.601,27.901-47.402  l17.1-6.899l66.303-26.701c23.1-9.3,49.2,1.8,58.5,24.902C371.503,251.695,360.403,278.094,337.303,287.394z"
   style="fill:#e6e6e6" />

<path
   id="path6"
   d="M387.404,139.491c0,18.001-10.499,34.802-28.201,42.002l-121.803,49.201l-45.001,17.999  c-23.102,9.6-49.201-1.8-58.501-24.601c-2.1-5.4-3.3-11.4-3.3-16.8c0-17.999,10.499-34.8,27.901-42l78.902-31.801l88.202-35.403  c23.102-9.3,49.201,1.8,58.501,24.601C386.205,128.09,387.404,134.091,387.404,139.491z"
   style="fill:#e6e6e6;fill-opacity:1" /><path
   id="path10"
   d="m 381.403,44.989 c 0,17.999 -10.499,34.5 -28.201,41.701 L 237.4,133.491 186.399,154.192 c -23.1,9.3 -49.201,-1.802 -58.501,-24.902 -2.098,-5.4 -3.3,-11.4 -3.3,-16.8 0,-18.001 10.501,-34.502 28.201,-41.701 L 237.4,36.588 319.602,3.287 c 23.102,-9.3 49.201,1.8 58.501,24.902 2.101,5.4 3.3,11.401 3.3,16.8 z"
   style="display:inline;fill:#e6e6e6;fill-opacity:1" /><path
   id="path4"
   d="M337.303,287.394l-54.902,22.203v65.402H237.4V230.695l66.303-26.701c23.1-9.3,49.2,1.8,58.5,24.902  C371.503,251.695,360.403,278.094,337.303,287.394z"
   style="fill:#cccccc" />
<path
   id="path8"
   d="M387.404,139.491c0,18.001-10.499,34.802-28.201,42.002l-121.803,49.201v-97.202l88.202-35.403  c23.102-9.3,49.201,1.8,58.501,24.601C386.205,128.09,387.404,134.091,387.404,139.491z"
   style="fill:#cccccc" />

<path
   id="path12"
   d="m 381.403,44.989 c 0,17.999 -10.499,34.5 -28.201,41.701 L 237.4,133.491 V 36.589 L 319.602,3.288 c 23.102,-9.3 49.201,1.8 58.501,24.902 2.101,5.399 3.3,11.4 3.3,16.799 z"
   style="display:inline;fill:#cccccc" />
<path
   id="path14"
   d="M282.402,421.999h-90.002c-8.401,0-15,6.599-15,15v15c0,33,27.002,60.001,60.002,60.001  s60.002-27.002,60.002-60.001v-15C297.402,428.599,290.803,421.999,282.402,421.999z"
   style="fill:#C5C9F7;" />
<path
   id="path16"
   d="M297.402,436.999v15c0,33-27.002,60.001-60.002,60.001v-90.002h45.001  C290.803,421.999,297.402,428.599,297.402,436.999z"
   style="fill:#A8AFF1;" />
<path
   id="path18"
   d="M312.402,329.996H162.399c-8.401,0-15,6.599-15,15v62.002c0,24.9,20.1,45.001,45.001,45.001h90.002  c24.902,0,45.001-20.102,45.001-45.001v-62.002C327.403,336.597,320.804,329.996,312.402,329.996z"
   style="fill:#E1E4FB;" />
<path
   id="path20"
   d="M327.403,344.997v62.002c0,24.9-20.1,45.001-45.001,45.001h-45.001V329.996h75.002  C320.804,329.996,327.403,336.597,327.403,344.997z"
   style="fill:#C5C9F7;" />















</svg>