<?xml version="1.0" encoding="UTF-8" standalone="no"?>
<svg
   xmlns:dc="http://purl.org/dc/elements/1.1/"
   xmlns:cc="http://creativecommons.org/ns#"
   xmlns:rdf="http://www.w3.org/1999/02/22-rdf-syntax-ns#"
   xmlns:svg="http://www.w3.org/2000/svg"
   xmlns="http://www.w3.org/2000/svg"
   version="1.1"
   width="512"
   viewBox="0 0 512 512"
   height="512"
   enable-background="new 0 0 512 512"
   id="Layer">
  <metadata
     id="metadata13">
    <rdf:RDF>
      <cc:Work
         rdf:about="">
        <dc:format>image/svg+xml</dc:format>
        <dc:type
           rdf:resource="http://purl.org/dc/dcmitype/StillImage" />
        <dc:title></dc:title>
      </cc:Work>
    </rdf:RDF>
  </metadata>
  <defs
     id="defs11" />
  <path
     id="path2"
     fill="#ffb4be"
     d="m457.941 256 47.029-47.029c9.372-9.373 9.372-24.568 0-33.941-9.373-9.373-24.568-9.373-33.941 0l-47.029 47.029-47.029-47.029c-9.373-9.373-24.568-9.373-33.941 0-9.372 9.373-9.372 24.568 0 33.941l47.029 47.029-47.029 47.029c-9.372 9.373-9.372 24.568 0 33.941 4.686 4.687 10.827 7.03 16.97 7.03s12.284-2.343 16.971-7.029l47.029-47.03 47.029 47.029c4.687 4.687 10.828 7.03 16.971 7.03s12.284-2.343 16.971-7.029c9.372-9.373 9.372-24.568 0-33.941z" />
  <path
     style="fill:#f0f7ff;fill-opacity:1"
     id="path4"
     fill="#f0eaea"
     d="m280 456h-24c-5.27 0-10.393-1.734-14.579-4.936l-136-104c-5.938-4.541-9.421-11.588-9.421-19.064v-144c0-7.476 3.483-14.523 9.421-19.064l136-104c4.186-3.202 9.309-4.936 14.579-4.936h24c13.255 0 24 10.745 24 24v352c0 13.255-10.745 24-24 24z" />
  <path
     style="fill:#c7cfe1;fill-opacity:1"
     id="path6"
     fill="#dccfcf"
     d="m112 352h-68c-24.301 0-44-19.699-44-44v-104c0-24.301 19.699-44 44-44h68z" />
</svg>
