<svg id="Layer" enable-background="new 0 0 512 512" height="512" viewBox="0 0 512 512" width="512" xmlns="http://www.w3.org/2000/svg"><path d="m457.941 256 47.029-47.029c9.372-9.373 9.372-24.568 0-33.941-9.373-9.373-24.568-9.373-33.941 0l-47.029 47.029-47.029-47.029c-9.373-9.373-24.568-9.373-33.941 0-9.372 9.373-9.372 24.568 0 33.941l47.029 47.029-47.029 47.029c-9.372 9.373-9.372 24.568 0 33.941 4.686 4.687 10.827 7.03 16.97 7.03s12.284-2.343 16.971-7.029l47.029-47.03 47.029 47.029c4.687 4.687 10.828 7.03 16.971 7.03s12.284-2.343 16.971-7.029c9.372-9.373 9.372-24.568 0-33.941z" fill="#ffb4be"/><path d="m280 456h-24c-5.27 0-10.393-1.734-14.579-4.936l-136-104c-5.938-4.541-9.421-11.588-9.421-19.064v-144c0-7.476 3.483-14.523 9.421-19.064l136-104c4.186-3.202 9.309-4.936 14.579-4.936h24c13.255 0 24 10.745 24 24v352c0 13.255-10.745 24-24 24z" fill="#f0eaea"/><path d="m112 352h-68c-24.301 0-44-19.699-44-44v-104c0-24.301 19.699-44 44-44h68z" fill="#dccfcf"/></svg>