<?xml version="1.0" encoding="iso-8859-1"?>
<!-- Generator: Adobe Illustrator 19.0.0, SVG Export Plug-In . SVG Version: 6.00 Build 0)  -->
<svg version="1.1" id="Layer_1" xmlns="http://www.w3.org/2000/svg" xmlns:xlink="http://www.w3.org/1999/xlink" x="0px" y="0px"
	 viewBox="0 0 512 512" style="enable-background:new 0 0 512 512;" xml:space="preserve">
<path style="fill:#A5EB78;" d="M256,0C114.615,0,0,114.615,0,256s114.615,256,256,256s256-114.615,256-256S397.385,0,256,0z"/>
<path style="fill:#FFFFFF;" d="M256,431.967c-97.03,0-175.967-78.939-175.967-175.967c0-28.668,7.013-56.655,20.156-81.677
	l-25.144-16.639l107.282-54.228l-7.974,119.943l-26.111-17.279c-7.203,15.517-11.041,32.51-11.041,49.879
	c0,65.507,53.294,118.801,118.801,118.801s118.801-53.294,118.801-118.801s-53.295-118.8-118.802-118.8V80.033
	c97.028,0,175.967,78.938,175.967,175.967S353.028,431.967,256,431.967z"/>
<g>
</g>
<g>
</g>
<g>
</g>
<g>
</g>
<g>
</g>
<g>
</g>
<g>
</g>
<g>
</g>
<g>
</g>
<g>
</g>
<g>
</g>
<g>
</g>
<g>
</g>
<g>
</g>
<g>
</g>
</svg>
