<?xml version="1.0" encoding="UTF-8" standalone="no"?>
<svg
   xmlns:dc="http://purl.org/dc/elements/1.1/"
   xmlns:cc="http://creativecommons.org/ns#"
   xmlns:rdf="http://www.w3.org/1999/02/22-rdf-syntax-ns#"
   xmlns:svg="http://www.w3.org/2000/svg"
   xmlns="http://www.w3.org/2000/svg"
   xmlns:sodipodi="http://sodipodi.sourceforge.net/DTD/sodipodi-0.dtd"
   xmlns:inkscape="http://www.inkscape.org/namespaces/inkscape"
   version="1.1"
   width="512"
   viewBox="0 0 512 512"
   height="512"
   enable-background="new 0 0 512 512"
   id="Layer"
   sodipodi:docname="volume_down.svg"
   inkscape:version="0.92.4 (fd57863, 2020-04-02)">
  <sodipodi:namedview
     pagecolor="#ffffff"
     bordercolor="#666666"
     borderopacity="1"
     objecttolerance="10"
     gridtolerance="10"
     guidetolerance="10"
     inkscape:pageopacity="0"
     inkscape:pageshadow="2"
     inkscape:window-width="1868"
     inkscape:window-height="1025"
     id="namedview8"
     showgrid="false"
     inkscape:zoom="0.4609375"
     inkscape:cx="278.77966"
     inkscape:cy="256"
     inkscape:window-x="52"
     inkscape:window-y="27"
     inkscape:window-maximized="1"
     inkscape:current-layer="Layer" />
  <metadata
     id="metadata15">
    <rdf:RDF>
      <cc:Work
         rdf:about="">
        <dc:format>image/svg+xml</dc:format>
        <dc:type
           rdf:resource="http://purl.org/dc/dcmitype/StillImage" />
        <dc:title />
      </cc:Work>
    </rdf:RDF>
  </metadata>
  <defs
     id="defs13" />
  <path
     id="path2"
     fill="#f0eaea"
     d="m280 456h-24c-5.27 0-10.393-1.734-14.579-4.936l-136-104c-5.938-4.541-9.421-11.588-9.421-19.064v-144c0-7.476 3.483-14.523 9.421-19.064l136-104c4.186-3.202 9.309-4.936 14.579-4.936h24c13.255 0 24 10.745 24 24v352c0 13.255-10.745 24-24 24z"
     style="fill:#f0f7ff;fill-opacity:1" />
  <path
     id="path8"
     fill="#dccfcf"
     d="m112 352h-68c-24.301 0-44-19.699-44-44v-104c0-24.301 19.699-44 44-44h68z"
     style="fill:#c7cfe1;fill-opacity:1" />
  <path
     id="rect827-3"
     d="m -256.5,333.7132 c 9.695,0 17.5,8.92 17.5,20 v 110 c 0,11.08 -7.805,20 -17.5,20 -9.695,0 -17.5,-8.92 -17.5,-20 v -110 c 0,-11.08 7.805,-20 17.5,-20 z"
     style="fill:#76e2f8;fill-opacity:1;fill-rule:evenodd;stroke:none;stroke-width:0.71221226;stroke-opacity:1;paint-order:markers fill stroke"
     transform="rotate(-90)" />
</svg>
