<?xml version="1.0" encoding="iso-8859-1"?>
<!-- Generator: Adobe Illustrator 19.0.0, SVG Export Plug-In . SVG Version: 6.00 Build 0)  -->
<svg version="1.1" id="Layer_1" xmlns="http://www.w3.org/2000/svg" xmlns:xlink="http://www.w3.org/1999/xlink" x="0px" y="0px"
	 viewBox="0 0 512 512" style="enable-background:new 0 0 512 512;" xml:space="preserve">
<g>
	<path style="fill:#50B9FF;" d="M507.243,122.747c-8.404,13.205-27.913,17.706-41.416,9.004
		C409.404,96.037,326.47,76.828,255.942,76.828h-0.3c-70.828,0-153.059,19.208-209.482,54.923
		c-14.107,9.004-32.714,4.801-41.416-9.004c-9.004-14.107-4.803-32.714,9.304-41.416c67.227-42.917,159.964-65.426,239.795-65.426
		h2.101c80.432,0.3,176.569,23.408,242.295,65.426C512.043,90.034,516.246,108.641,507.243,122.747z"/>
	<path style="fill:#50B9FF;" d="M440.216,224.187c-8.404,13.505-28.211,17.406-41.416,9.004
		c-37.515-24.009-96.937-36.615-142.856-36.615s-105.342,12.606-142.856,36.615c-14.105,9.004-32.712,4.801-41.416-9.004
		c-9.004-14.107-4.801-32.714,9.004-41.416c47.119-30.012,117.647-45.919,175.27-45.919s128.152,15.907,175.27,45.919
		C445.017,191.474,449.219,210.081,440.216,224.187z"/>
	<path style="fill:#50B9FF;" d="M380.192,325.327c-9.004,14.405-27.612,18.006-41.416,9.304
		c-18.607-11.705-57.622-18.307-82.833-18.307s-64.225,6.602-82.833,18.307c-13.804,8.702-32.712,4.801-41.416-9.304
		c-9.004-13.806-4.801-32.414,9.004-41.416c27.913-17.708,78.633-27.312,115.246-27.312s87.333,9.604,115.246,27.312
		C384.993,292.915,389.195,311.221,380.192,325.327z"/>
	<path style="fill:#50B9FF;" d="M255.942,496.095c-33.104,0-60.024-26.92-60.024-60.024s26.92-60.024,60.024-60.024
		s60.024,26.92,60.024,60.024S289.046,496.095,255.942,496.095z"/>
</g>
<g>
	<path style="fill:#4596E6;" d="M315.966,436.071c0-33.104-26.92-60.024-60.024-60.024v120.047
		C289.046,496.095,315.966,469.175,315.966,436.071z"/>
	<path style="fill:#4596E6;" d="M380.192,325.327c-9.004,14.405-27.612,18.006-41.416,9.304
		c-18.607-11.705-57.622-18.307-82.833-18.307v-59.726c36.613,0,87.333,9.604,115.246,27.312
		C384.993,292.915,389.195,311.221,380.192,325.327z"/>
	<path style="fill:#4596E6;" d="M440.216,224.187c-8.404,13.505-28.211,17.406-41.416,9.004
		c-37.515-24.009-96.937-36.615-142.856-36.615v-59.724c57.622,0,128.152,15.907,175.27,45.919
		C445.017,191.474,449.219,210.081,440.216,224.187z"/>
	<path style="fill:#4596E6;" d="M507.243,122.747c-8.404,13.205-27.913,17.706-41.416,9.004
		C409.404,96.037,326.47,76.828,255.942,76.828V15.905c80.432,0.3,176.569,23.408,242.295,65.426
		C512.043,90.034,516.246,108.641,507.243,122.747z"/>
</g>
<g>
</g>
<g>
</g>
<g>
</g>
<g>
</g>
<g>
</g>
<g>
</g>
<g>
</g>
<g>
</g>
<g>
</g>
<g>
</g>
<g>
</g>
<g>
</g>
<g>
</g>
<g>
</g>
<g>
</g>
</svg>
