<svg id="Layer_3" enable-background="new 0 0 64 64" height="512" viewBox="0 0 64 64" width="512" xmlns="http://www.w3.org/2000/svg"><g><path d="m4 49c-1.105 0-2-.895-2-2v-30c0-1.105.895-2 2-2 1.105 0 2 .895 2 2v30c0 1.105-.895 2-2 2z" fill="#f4b2b0"/><path d="m10 25h1c3.866 0 7 3.134 7 7 0 3.866-3.134 7-7 7h-1" fill="#f4b2b0"/><g fill="#b3404a"><path d="m.999 47c0 1.653 1.346 2.998 3.001 2.998 1.653 0 3-1.345 3-2.998v-.63l.598.192.61-1.905-1.208-.388v-2.271h.999c1.301 0 2.401-.839 2.815-2h.186c4.41 0 7.998-3.588 7.998-7.999s-3.588-7.999-7.998-7.999h-.186c-.414-1.162-1.513-2.001-2.815-2.001h-.999v-1.285l1.214-.413-.644-1.893-.57.194v-1.603c0-1.654-1.347-3-3.002-3-1.654.001-2.999 1.347-2.999 3zm15.999-15c0 3.308-2.69 5.998-5.998 5.998h-.002v-4.999h1.001c.551 0 .999.448.999.999v1h2v-1c0-.771-.301-1.468-.78-2 .48-.532.78-1.229.78-2v-1h-2v1c0 .551-.448.999-.999.999h-1.001v-4.997h.002c3.308 0 5.998 2.691 5.998 6zm-8.999-8.001c.551 0 .999.448.999 1v13.999c0 .552-.448 1-.999 1h-.999v-15.999zm-5-7c0-.552.449-1 1.001-1 .551 0 1 .448 1 1v30.001c0 .551-.449.998-1 .998h-.001c-.552 0-1-.447-1-.998z"/><path d="m29 19.999c-3.158 0-4 7.543-4 12 0 4.456.842 11.999 4 11.999 3.157 0 3.999-7.543 3.999-11.999 0-4.457-.842-12-3.999-12zm.042 22.006c-.713-.279-2.042-3.963-2.042-10.006 0-6.044 1.329-9.728 1.957-10.007.713.28 2.042 3.964 2.042 10.007 0 6.042-1.329 9.726-1.957 10.006z"/><path d="m41.999 14.999c-3.955 0-4.999 11.119-4.999 17 0 5.88 1.044 16.999 4.999 16.999 3.954 0 4.999-11.119 4.999-16.999 0-5.881-1.045-17-4.999-17zm0 31.999c-.871 0-2.999-5.256-2.999-14.999 0-9.744 2.128-15 2.999-15 .87 0 2.999 5.256 2.999 15 0 9.743-2.129 14.999-2.999 14.999z"/><path d="m62.998 31.999c0-8.647-1.254-25-5.999-25-4.746 0-6 16.353-6 25 0 8.646 1.254 24.999 6 24.999 4.745 0 5.999-16.352 5.999-24.999zm-5.999 22.999c-1.196 0-4-7.825-4-22.999 0-15.175 2.804-23 4-23 1.195 0 3.999 7.825 3.999 23 0 15.174-2.804 22.999-3.999 22.999z"/><path d="m9.759 45.526h2.001v2h-2.001z" transform="matrix(.305 -.952 .952 .305 -36.83 42.571)"/><path d="m36.421 54.077h2.001v2h-2.001z" transform="matrix(.305 -.952 .952 .305 -26.449 73.902)"/><path d="m47.847 57.742h2.001v2.001h-2.001z" transform="matrix(.305 -.952 .952 .305 -21.996 87.34)"/><path d="m44.038 56.521h2.001v2h-2.001z" transform="matrix(.305 -.952 .952 .305 -23.48 82.864)"/><path d="m40.23 55.299h2.001v2h-2.001z" transform="matrix(.305 -.952 .952 .305 -24.967 78.378)"/><path d="m13.568 46.747h2.001v2h-2.001z" transform="matrix(.305 -.952 .952 .305 -35.347 47.054)"/><path d="m28.803 51.634h2.001v2h-2.001z" transform="matrix(.305 -.952 .952 .305 -29.416 64.95)"/><path d="m24.994 50.412h2.001v2h-2.001z" transform="matrix(.305 -.952 .952 .305 -30.897 60.483)"/><path d="m55.465 60.186h2.001v2h-2.001z" transform="matrix(.305 -.952 .952 .305 -19.035 96.282)"/><path d="m51.656 58.964h2.001v2h-2.001z" transform="matrix(.305 -.952 .952 .305 -20.513 91.817)"/><path d="m17.376 47.969h2.001v2h-2.001z" transform="matrix(.305 -.952 .952 .305 -33.864 51.522)"/><path d="m21.186 49.191h2.001v2h-2.001z" transform="matrix(.305 -.952 .952 .305 -32.381 55.999)"/><path d="m32.612 52.855h2.001v2.001h-2.001z" transform="matrix(.305 -.952 .952 .305 -27.93 69.435)"/><path d="m28.67 10.959h2v2h-2z" transform="matrix(.947 -.322 .322 .947 -2.27 10.184)"/><path d="m55.183 1.954h2v2h-2z" transform="matrix(.947 -.322 .322 .947 2.038 18.236)"/><path d="m47.608 4.527h2v2h-2z" transform="matrix(.947 -.321 .321 .947 .802 15.913)"/><path d="m51.396 3.24h2v2h-2z" transform="matrix(.947 -.322 .322 .947 1.422 17.086)"/><path d="m32.457 9.672h2.001v2h-2.001z" transform="matrix(.947 -.322 .322 .947 -1.655 11.328)"/><path d="m40.032 7.1h2.001v2h-2.001z" transform="matrix(.947 -.322 .322 .947 -.424 13.635)"/><path d="m13.52 16.104h2.001v2h-2.001z" transform="matrix(.947 -.322 .322 .947 -4.73 5.579)"/><path d="m36.245 8.386h2v2h-2z" transform="matrix(.947 -.322 .322 .947 -1.039 12.484)"/><path d="m9.733 17.39h2v2h-2z" transform="matrix(.947 -.321 .321 .947 -5.34 4.424)"/><path d="m17.308 14.817h2v2h-2z" transform="matrix(.947 -.322 .322 .947 -4.116 6.733)"/><path d="m24.883 12.245h2v2h-2z" transform="matrix(.947 -.322 .322 .947 -2.885 9.033)"/><path d="m21.095 13.531h2v2h-2z" transform="matrix(.947 -.322 .322 .947 -3.501 7.883)"/><path d="m43.821 5.813h2v2h-2z" transform="matrix(.947 -.322 .322 .947 .192 14.785)"/></g></g></svg>