<?xml version="1.0" encoding="UTF-8" standalone="no"?>
<svg
   xmlns:dc="http://purl.org/dc/elements/1.1/"
   xmlns:cc="http://creativecommons.org/ns#"
   xmlns:rdf="http://www.w3.org/1999/02/22-rdf-syntax-ns#"
   xmlns:svg="http://www.w3.org/2000/svg"
   xmlns="http://www.w3.org/2000/svg"
   xml:space="preserve"
   style="enable-background:new 0 0 512 512;"
   viewBox="0 0 512 512"
   y="0px"
   x="0px"
   id="Capa_1"
   version="1.1"><metadata
   id="metadata65"><rdf:RDF><cc:Work
       rdf:about=""><dc:format>image/svg+xml</dc:format><dc:type
         rdf:resource="http://purl.org/dc/dcmitype/StillImage" /><dc:title></dc:title></cc:Work></rdf:RDF></metadata><defs
   id="defs63" />
<path
   id="path2"
   d="M293.965,512h-75.93c-14.648,0-26.522-11.874-26.522-26.522V383.025h128.975v102.453  C320.487,500.125,308.613,512,293.965,512z"
   style="fill:#9C9DA0;" />
<path
   id="path4"
   d="M266.112,383.025v102.453c0,14.648-11.874,26.522-26.522,26.522h54.375  c14.648,0,26.522-11.875,26.522-26.522V383.025H266.112z"
   style="fill:#909091;" />
<path
   id="path6"
   d="M 412.551,156.551 C 412.551,70.09 342.461,0 256,0 169.539,0 99.449,70.09 99.449,156.551 c 0,16.824 2.665,33.023 7.576,48.211 H 107 c 7.893,17.723 15.438,34.932 22.48,51.976 h 253.038 c 7.042,-17.044 14.587,-34.253 22.48,-51.976 h -0.025 c 4.913,-15.188 7.578,-31.387 7.578,-48.211 z"
   style="display:inline;fill:#fedb41;fill-opacity:1" />
<path
   id="path8"
   d="M 412.551,156.551 C 412.551,70.09 342.461,0 256,0 c -9.22,0 -18.252,0.804 -27.035,2.333 73.575,12.809 129.516,76.978 129.516,154.218 0,16.824 -2.665,33.023 -7.576,48.211 h 0.025 c -7.893,17.723 -15.438,34.932 -22.48,51.976 h 54.07 c 7.042,-17.044 14.587,-34.253 22.48,-51.976 h -0.025 c 4.911,-15.188 7.576,-31.387 7.576,-48.211 z"
   style="display:inline;fill:#ffcc33;fill-opacity:1" />
<path
   id="path10"
   d="M108.375,204.884l-1.374-0.122c30.171,67.745,55.33,128.012,66.263,200.027  c1.586,10.444,10.512,18.192,21.076,18.192h123.32c10.563,0,19.49-7.748,21.076-18.192c10.934-72.015,36.092-132.283,66.263-200.027  l-1.374,0.122C305.401,213.584,206.599,213.584,108.375,204.884z"
   style="fill:#96CBEB;" />
<path
   id="path12"
   d="M403.625,204.884c-18.139,1.607-36.298,2.912-54.468,3.925  c-29.369,66.106-53.749,125.404-64.464,195.98c-1.586,10.444-10.513,18.192-21.076,18.192h54.043  c10.563,0,19.49-7.748,21.076-18.192c10.934-72.016,36.092-132.283,66.263-200.027L403.625,204.884z"
   style="fill:#75B8DB;" />
<g
   id="g20">
	<path
   id="path14"
   d="m 188.572,266.331 c -0.922,-4.15 -5.032,-6.77 -9.182,-5.844 -4.149,0.922 -6.766,5.033 -5.844,9.181 l 21.148,95.205 c 0.797,3.587 3.978,6.03 7.506,6.03 0.553,0 1.114,-0.06 1.676,-0.185 4.149,-0.922 6.766,-5.033 5.844,-9.181 z"
   style="fill:#fedb41;fill-opacity:1" />
	<path
   id="path16"
   d="m 238.355,267.431 c -0.314,-4.238 -3.99,-7.41 -8.243,-7.107 -4.239,0.314 -7.42,4.004 -7.107,8.243 l 7.049,95.205 c 0.3,4.045 3.675,7.128 7.667,7.128 0.19,0 0.383,-0.007 0.576,-0.021 4.239,-0.314 7.42,-4.004 7.107,-8.243 z"
   style="fill:#fedb41;fill-opacity:1" />
	<path
   id="path18"
   d="m 280.859,260.324 c -4.236,-0.305 -7.929,2.868 -8.243,7.107 l -7.049,95.205 c -0.314,4.239 2.868,7.93 7.107,8.243 0.193,0.014 0.385,0.021 0.576,0.021 3.992,0 7.367,-3.082 7.667,-7.128 l 7.049,-95.205 c 0.314,-4.238 -2.868,-7.929 -7.107,-8.243 z"
   style="fill:#fedb41;fill-opacity:1" /><path
   id="path22"
   d="m 331.559,260.487 c -4.151,-0.925 -8.26,1.695 -9.182,5.844 l -21.148,95.205 c -0.921,4.149 1.695,8.259 5.844,9.181 0.562,0.125 1.123,0.185 1.676,0.185 3.528,0 6.709,-2.442 7.506,-6.03 l 21.148,-95.205 c 0.922,-4.148 -1.694,-8.258 -5.844,-9.18 z"
   style="fill:#fedb41;fill-opacity:1" />
</g>

<g
   id="g28">
	<path
   id="path24"
   d="m 191.513,475.445 v 0 10.032 c 0,1.836 0.187,3.629 0.542,5.36 h 127.89 c 0.355,-1.731 0.542,-3.524 0.542,-5.36 v -10.032 z"
   style="fill:#909091" />
	<polygon
   id="polygon26"
   points="320.487,443.293 191.513,443.293 191.513,458.685 320.487,458.685 "
   style="fill:#909091" />
</g>















</svg>