<?xml version="1.0" encoding="UTF-8" standalone="no"?>
<svg
   xmlns:dc="http://purl.org/dc/elements/1.1/"
   xmlns:cc="http://creativecommons.org/ns#"
   xmlns:rdf="http://www.w3.org/1999/02/22-rdf-syntax-ns#"
   xmlns:svg="http://www.w3.org/2000/svg"
   xmlns="http://www.w3.org/2000/svg"
   version="1.1"
   width="390"
   viewBox="0 0 390 390"
   height="390"
   enable-background="new 0 0 512 512"
   id="Capa_1">
  <metadata
     id="metadata27">
    <rdf:RDF>
      <cc:Work
         rdf:about="">
        <dc:format>image/svg+xml</dc:format>
        <dc:type
           rdf:resource="http://purl.org/dc/dcmitype/StillImage" />
        <dc:title></dc:title>
      </cc:Work>
    </rdf:RDF>
  </metadata>
  <defs
     id="defs25" />
  <g
     transform="translate(-61,-61)"
     id="g20">
    <path
       style="fill:#ff320a"
       id="path6"
       d="M 256,451 C 148.477,451 61,363.523 61,256 61,148.477 148.477,61 256,61 c 107.523,0 195,87.477 195,195 0,107.523 -87.477,195 -195,195 z" />
    <path
       style="fill:#d21900"
       id="path8"
       d="M 451,256 C 451,148.477 363.523,61 256,61 v 390 c 107.523,0 195,-87.477 195,-195 z" />
    <path
       style="fill:#dcf5fa"
       id="path10"
       d="m 256,371 c -63.411,0 -115,-51.589 -115,-115 0,-36.485 16.836,-70.02 46.19,-92.006 6.63,-4.966 16.032,-3.617 20.998,3.014 4.966,6.631 3.617,16.032 -3.014,20.998 C 183.456,204.272 171,229.056 171,256 c 0,46.869 38.131,85 85,85 46.869,0 85,-38.131 85,-85 0,-26.944 -12.456,-51.728 -34.175,-67.994 -6.631,-4.966 -7.98,-14.367 -3.014,-20.998 4.966,-6.631 14.368,-7.98 20.998,-3.014 C 354.164,185.98 371,219.515 371,256 c 0,63.411 -51.589,115 -115,115 z" />
    <path
       style="fill:#dcf5fa"
       id="path12"
       d="m 256,211 c -8.284,0 -15,-6.716 -15,-15 v -60 c 0,-8.284 6.716,-15 15,-15 8.284,0 15,6.716 15,15 v 60 c 0,8.284 -6.716,15 -15,15 z" />
    <g
       style="fill:#bedce6"
       id="g18">
      <path
         id="path14"
         d="m 371,256 c 0,-36.485 -16.836,-70.02 -46.19,-92.006 -6.63,-4.966 -16.032,-3.617 -20.998,3.014 -4.966,6.631 -3.617,16.032 3.014,20.998 C 328.544,204.272 341,229.056 341,256 c 0,46.869 -38.131,85 -85,85 v 30 c 63.411,0 115,-51.589 115,-115 z" />
      <path
         id="path16"
         d="m 271,196 v -60 c 0,-8.284 -6.716,-15 -15,-15 v 90 c 8.284,0 15,-6.716 15,-15 z" />
    </g>
  </g>
</svg>
