<svg id="Capa_1" enable-background="new 0 0 500.762 500.762" height="512" viewBox="0 0 500.762 500.762" width="512" xmlns="http://www.w3.org/2000/svg"><circle cx="250.381" cy="255.762" fill="#fec753" r="245"/><path d="m274.142 175.762h-48.478c-.143 0-.261-10.117-.261-10.261v-6.239c0-3.575 2.925-6.5 6.5-6.5h36c3.575 0 6.5 2.925 6.5 6.5v16.239c0 .143-.118.261-.261.261z" fill="#0c1f35"/><path d="m329.968 167.762h-159.13c-17.913 0-32.435 14.522-32.435 32.435v273.53c33.563 17.278 71.63 27.036 111.978 27.036 40.366 0 78.448-9.767 112.022-27.059v-273.508c0-17.913-14.522-32.434-32.435-32.434z" fill="#35528c"/><path d="m250.403 270.762c-20.89 0-39.873 8.123-54 21.364v-91.929c0-17.913 14.521-32.435 32.435-32.435h-58c-17.913 0-32.435 14.522-32.435 32.435v273.53c18.135 9.335 37.586 16.47 58 21.062v-87.39c14.127 13.241 33.11 21.364 54 21.364 43.63 0 79-35.37 79-79s-35.37-79.001-79-79.001z" fill="#1f3a60"/><g fill="#fe5d6d"><path d="m350.726 76.893c-3.458.001-6.833-1.75-8.764-4.918-19.641-32.229-53.868-51.47-91.559-51.47s-71.919 19.241-91.559 51.47c-2.946 4.836-9.255 6.367-14.09 3.419-4.835-2.947-6.366-9.255-3.419-14.09 11.19-18.362 26.958-33.725 45.599-44.428 19.229-11.041 41.176-16.876 63.469-16.876s44.24 5.835 63.469 16.875c18.641 10.703 34.409 26.066 45.599 44.428 2.947 4.835 1.416 11.143-3.419 14.09-1.666 1.015-3.508 1.5-5.326 1.5z"/><path d="m312.463 110.736c-3.458 0-6.833-1.75-8.764-4.918-11.434-18.761-31.358-29.962-53.296-29.962s-41.862 11.201-53.296 29.962c-2.947 4.835-9.254 6.366-14.09 3.419-4.835-2.947-6.366-9.255-3.419-14.09 15.186-24.919 41.655-39.796 70.805-39.796s55.619 14.877 70.805 39.796c2.947 4.835 1.416 11.143-3.419 14.09-1.666 1.016-3.508 1.499-5.326 1.499z"/><path d="m274.199 144.58c-3.458 0-6.833-1.75-8.764-4.919-3.225-5.293-8.845-8.453-15.031-8.453-6.187 0-11.806 3.16-15.031 8.453-2.947 4.837-9.257 6.367-14.09 3.42-4.835-2.947-6.366-9.255-3.42-14.09 6.978-11.451 19.143-18.288 32.541-18.288s25.563 6.837 32.541 18.288c2.946 4.835 1.415 11.143-3.42 14.09-1.666 1.015-3.508 1.499-5.326 1.499z"/></g><path d="m250.403 279.762c-38.66 0-70 31.34-70 70s31.34 70 70 70 70-31.34 70-70-31.34-70-70-70zm0 108.101c-21.043 0-38.101-17.059-38.101-38.101 0-21.043 17.058-38.101 38.101-38.101s38.101 17.059 38.101 38.101-17.058 38.101-38.101 38.101z" fill="#83c5ed"/><path d="m208.757 349.762c0-33.803 23.96-62.007 55.823-68.562-4.579-.942-9.32-1.438-14.177-1.438-38.66 0-70 31.34-70 70s31.34 70 70 70c4.857 0 9.599-.496 14.177-1.438-31.863-6.555-55.823-34.76-55.823-68.562z" fill="#5bb3ce"/></svg>